<svg id="Layer_1" data-name="Layer 1" xmlns="http://www.w3.org/2000/svg" viewBox="0 0 400 300"><title>#50 hiking</title><path d="M213.75,184,194,252.5l-5.53-6.71A313.54,313.54,0,0,0,191,183C188.75,149.5,213.75,184,213.75,184Z" fill="#f4a28c"/><path d="M213.75,184,194,252.5l-5.53-6.71A313.54,313.54,0,0,0,191,183C188.75,149.5,213.75,184,213.75,184Z" opacity="0.08"/><rect x="121.09" y="72.3" width="75.46" height="111.19" rx="13.82" ry="13.82" transform="translate(-25.25 40.16) rotate(-13.36)" fill="#ffd200"/><rect x="121.09" y="72.3" width="75.46" height="111.19" rx="13.82" ry="13.82" transform="translate(-25.25 40.16) rotate(-13.36)" opacity="0.08"/><rect x="135.84" y="68.79" width="75.46" height="111.19" rx="13.82" ry="13.82" transform="translate(-24.05 43.47) rotate(-13.36)" fill="#ffd200"/><path d="M195.89,92.87s17.76,39.87,46.41,36.33,49.32-56.34,49.32-56.34L282,68s-33,54.49-50,27.7l-2.4-2.14a26,26,0,0,0-33.72-.72Z" fill="#68e1fd"/><path d="M195.89,92.87s17.76,39.87,46.41,36.33,49.32-56.34,49.32-56.34L282,68s-33,54.49-50,27.7l-2.4-2.14a26,26,0,0,0-33.72-.72Z" fill="#fff" opacity="0.35"/><path d="M185.63,47.81s2.58,6.17,2.87,10.73a3.35,3.35,0,0,1-3.16,3.56c-2.3.11-5.44-.41-7.23-3.54l-3.69-5a6,6,0,0,1,.56-6.92C177.74,43,184.24,44,185.63,47.81Z" fill="#f4a28c"/><polygon points="175.14 55.99 176.47 77.86 188.47 76.26 182.83 61.38 175.14 55.99" fill="#f4a28c"/><path d="M184.13,48.58a26.23,26.23,0,0,1-6,1.44A5.56,5.56,0,0,1,180,55.84a4.54,4.54,0,0,1-4.67,3.4L172.8,51a6.8,6.8,0,0,1,1.43-6.83,23,23,0,0,1,2.3-2.21c2.05-1.7,6-1.24,7.61-3.51a1.61,1.61,0,0,1,2.75.22c1.17,2.37,2,6.43-.94,8.87A6.14,6.14,0,0,1,184.13,48.58Z" fill="#24285b"/><path d="M180.61,55.43S179.78,53,178,53.78s-.6,4.31,2,3.83Z" fill="#f4a28c"/><path d="M187.06,51.78l2.56,1.88a1.08,1.08,0,0,1-.13,1.81l-2.28,1.24Z" fill="#f4a28c"/><path d="M183,61.8a8.14,8.14,0,0,1-4.16-1.35s-.15,4.79,5.78,5.61Z" fill="#ce8172" opacity="0.31"/><circle cx="359.21" cy="57.66" r="3.95" fill="#c9c9c9"/><circle cx="58.17" cy="150" r="3.95" fill="#c9c9c9"/><circle cx="355.26" cy="253.33" r="3.95" fill="#c9c9c9"/><path d="M198.67,70.55s21.16-.66,28.66,7.31,20.07,24.32,3.95,51.56Z" fill="#ffd200"/><path d="M183.55,167.85s6.31,17.22,17.27,18.87c6.76,1,19.54,1.28,28.36,1.33a12.4,12.4,0,0,1,11.89,9.21l6.16,23.15,3.55,1-.12-30.33a21.34,21.34,0,0,0-14.77-20.22l-11.65-3.79Z" fill="#f4a28c"/><circle cx="70.01" cy="37.81" r="3.95" fill="#c9c9c9" opacity="0.36"/><polygon points="189.23 180.86 190.26 209.75 210.67 204.83 215 184 189.23 180.86" fill="#24285b"/><circle cx="250.78" cy="44.36" r="3.95" fill="#c9c9c9" opacity="0.36"/><circle cx="43.05" cy="249.39" r="3.95" fill="#c9c9c9" opacity="0.36"/><circle cx="311.96" cy="158.48" r="3.95" fill="#c9c9c9" opacity="0.36"/><path d="M163.08,80.45s19.58-12.83,42-5.12S232.86,93,232.19,116.67s-7.95,50.41-7.95,50.41l-40.69.77S114.79,111.85,163.08,80.45Z" fill="#68e1fd"/><path d="M173.59,80.72s24.16-.88,25.08,26.53h5.16l4.17,25.9s7.52,3.6,4.26,9.1c0,0-4,10.77,2.74,25l-31.45.59S167.05,154,156.4,137.79,163.5,100,163.5,100Z" opacity="0.08"/><path d="M183.55,167.85s4,19.53,17.7,20.27,32,3.1,32,3.1L241,171.28l-16.73-4.2Z" fill="#24285b"/><path d="M156.76,81.47s12-6.61,22.12,2.78,20.15,38.93-24.55,54.28c0,0-6.23-8-7-12S132.21,96.1,156.76,81.47Z" fill="#ffd200"/><path d="M175.44,101.18c-2.47-11.21-16.31-15.41-25-7.91-15.53,13.39-40.21,38.66-32.37,58.3,11.2,28.07,72.18-7.15,72.18-7.15l-2.65-9.71s-42.1,16.27-47,3.92C136.61,128.72,179.81,121.11,175.44,101.18Z" fill="#68e1fd"/><rect x="201.38" y="107.05" width="4.9" height="147.62" transform="translate(-24.44 32.04) rotate(-8.48)" fill="#ffd200"/><path d="M175.44,101.18c-2.47-11.21-16.31-15.41-25-7.91-15.53,13.39-40.21,38.66-32.37,58.3,11.2,28.07,72.18-7.15,72.18-7.15l-2.65-9.71s-42.1,16.27-47,3.92C136.61,128.72,179.81,121.11,175.44,101.18Z" fill="#fff" opacity="0.35"/><path d="M188,136.18s4.44-4.2,6.91-2.72,4.2.68,7.16,1.2,4.2,12.16-12.15,8.57Z" fill="#24285b"/><polygon points="273.6 59.25 284.83 100.26 298.71 90.81 290.14 55.64 294.87 34.99 273.6 34.99 273.6 59.25" fill="#ffd200"/><polygon points="273.6 41.34 287.93 41.34 286.15 55.99 293.39 87.11 283.21 94.35 273.6 59.25 273.6 41.34" fill="#fff" opacity="0.37"/><path d="M292.84,67s4-13.22-3.14-16.16S285,66.89,292.84,67Z" fill="#24285b"/><path d="M243.76,209.75H253v11.94a4.37,4.37,0,0,0,3,4.14l4.17,1.39a4.53,4.53,0,0,1,3.1,4.29v2.24H247.62a2.53,2.53,0,0,1-2.52-2.36Z" fill="#24285b"/><polygon points="120.67 246.67 158.82 215.67 195.9 253.33 224 223.67 245.76 232.92 279 209.75 298.71 233.75 316.33 268.33 105 268.33 120.67 246.67" fill="#a5a5a5"/><polygon points="158.82 215.67 138.67 251.33 134.33 268.33 105 268.33 120.67 246.67 158.82 215.67" fill="#e6e6e6" opacity="0.33"/><polygon points="195.9 253.33 208.17 263.33 224 223.67 195.9 253.33" fill="#e6e6e6" opacity="0.33"/><polygon points="245.76 232.92 257.5 247 277 222.83 279 209.75 245.76 232.92" fill="#e6e6e6" opacity="0.33"/><polygon points="188.47 237.67 198.83 239.04 195.9 253.33 188.47 245.79 188.47 237.67" fill="#24285b"/><rect x="178.88" y="92.15" width="9.71" height="13.25" transform="translate(-12.56 28.17) rotate(-8.48)" fill="#ffd200"/><rect x="178.88" y="92.15" width="9.71" height="13.25" transform="translate(-12.56 28.17) rotate(-8.48)" fill="#fff" opacity="0.37"/><rect x="231.83" y="86.83" width="8.37" height="13.25" transform="translate(-16.71 69.57) rotate(-16.2)" fill="#ffd200"/><rect x="231.83" y="86.83" width="8.37" height="13.25" transform="translate(-16.71 69.57) rotate(-16.2)" fill="#fff" opacity="0.37"/></svg>