<?xml version="1.0" encoding="utf-8"?>
<!-- Generator: Adobe Illustrator 24.0.2, SVG Export Plug-In . SVG Version: 6.00 Build 0)  -->
<svg version="1.1" id="Layer_1" xmlns="http://www.w3.org/2000/svg" xmlns:xlink="http://www.w3.org/1999/xlink" x="0px" y="0px"
	 viewBox="0 0 400 300" style="enable-background:new 0 0 400 300;" xml:space="preserve">
<style type="text/css">
	.st0{fill:#EFFF5F;}
	.st1{fill:#F4A28C;}
	.st2{opacity:8.000000e-02;enable-background:new    ;}
	.st3{fill:#0000F4;}
	.st4{fill:#0016C9;}
	.st5{fill:#68E1FD;}
	.st6{opacity:0.35;fill:#FFFFFF;enable-background:new    ;}
	.st7{fill:#24285B;}
	.st8{opacity:0.31;fill:#CE8172;enable-background:new    ;}
	.st9{fill:#FFD200;}
	.st10{fill:#D4A100;}
	.st11{opacity:0.37;fill:#FFFFFF;enable-background:new    ;}
	.st12{fill:#FFBE55;}
	.st13{opacity:0.33;fill:#E6E6E6;enable-background:new    ;}
</style>
<g>
	<ellipse class="st0" cx="212.6" cy="146.1" rx="102.9" ry="107.6"/>
	<path class="st1" d="M213.8,184L194,252.5l-5.5-6.7c2.9-20.8,3.8-41.8,2.5-62.8C188.8,149.5,213.8,184,213.8,184z"/>
	<path class="st2" d="M213.8,184L194,252.5l-5.5-6.7c2.9-20.8,3.8-41.8,2.5-62.8C188.8,149.5,213.8,184,213.8,184z"/>
	<path class="st3" d="M122.7,79.3l46.5-11c7.4-1.8,14.9,2.8,16.6,10.3l19.3,81.3c1.8,7.4-2.8,14.9-10.3,16.6l-46.5,11
		c-7.4,1.8-14.9-2.8-16.6-10.3L112.5,96C110.7,88.5,115.3,81.1,122.7,79.3z"/>
	<path class="st4" d="M139,75.7l46.5-11c7.4-1.8,14.9,2.8,16.6,10.3l19.3,81.3c1.8,7.4-2.8,14.9-10.3,16.6l-46.5,11
		c-7.4,1.8-14.9-2.8-16.6-10.3l-19.3-81.3C127,84.9,131.6,77.5,139,75.7z"/>
	<path class="st5" d="M195.9,92.9c0,0,17.8,39.9,46.4,36.3s49.3-56.3,49.3-56.3L282,68c0,0-33,54.5-50,27.7l-2.4-2.1
		C220.1,85.1,205.8,84.8,195.9,92.9L195.9,92.9z"/>
	<path class="st6" d="M195.9,92.9c0,0,17.8,39.9,46.4,36.3s49.3-56.3,49.3-56.3L282,68c0,0-33,54.5-50,27.7l-2.4-2.1
		C220.1,85.1,205.8,84.8,195.9,92.9L195.9,92.9z"/>
	<path class="st1" d="M185.6,47.8c0,0,2.6,6.2,2.9,10.7c0.1,1.8-1.3,3.4-3.1,3.6c0,0,0,0,0,0c-2.3,0.1-5.4-0.4-7.2-3.5l-3.7-5
		c-1.3-2.2-1.1-5,0.6-6.9C177.7,43,184.2,44,185.6,47.8z"/>
	<polygon class="st1" points="175.1,56 176.5,77.9 188.5,76.3 182.8,61.4 	"/>
	<path class="st7" d="M184.1,48.6c-1.9,0.7-4,1.2-6,1.4c1.7,1.4,2.5,3.7,1.9,5.8c-0.5,2.1-2.5,3.5-4.7,3.4l-2.5-8.2
		c-0.8-2.4-0.3-5,1.4-6.8c0.7-0.8,1.5-1.5,2.3-2.2c2.1-1.7,6-1.2,7.6-3.5c0.5-0.7,1.5-0.9,2.2-0.4c0.2,0.2,0.4,0.4,0.5,0.6
		c1.2,2.4,2,6.4-0.9,8.9C185.4,48,184.8,48.3,184.1,48.6z"/>
	<path class="st1" d="M180.6,55.4c0,0-0.8-2.4-2.6-1.7s-0.6,4.3,2,3.8L180.6,55.4z"/>
	<path class="st1" d="M187.1,51.8l2.6,1.9c0.5,0.4,0.6,1,0.2,1.5c-0.1,0.1-0.2,0.2-0.3,0.3l-2.3,1.2L187.1,51.8z"/>
	<path class="st8" d="M183,61.8c-1.5-0.1-2.9-0.5-4.2-1.3c0,0-0.1,4.8,5.8,5.6L183,61.8z"/>
	<path class="st4" d="M198.7,70.6c0,0,21.2-0.7,28.7,7.3s20.1,24.3,3.9,51.6L198.7,70.6z"/>
	<path class="st1" d="M183.6,167.9c0,0,6.3,17.2,17.3,18.9c6.8,1,19.5,1.3,28.4,1.3c5.6,0,10.5,3.8,11.9,9.2l6.2,23.1l3.6,1
		l-0.1-30.3c0-9.2-6-17.4-14.8-20.2l-11.6-3.8L183.6,167.9z"/>
	<polygon class="st7" points="189.2,180.9 190.3,209.8 210.7,204.8 215,184 	"/>
	<path class="st5" d="M163.1,80.4c0,0,19.6-12.8,42-5.1s27.8,17.7,27.1,41.3s-7.9,50.4-7.9,50.4l-40.7,0.8
		C183.6,167.9,114.8,111.8,163.1,80.4z"/>
	<path class="st2" d="M173.6,80.7c0,0,24.2-0.9,25.1,26.5h5.2l4.2,25.9c0,0,7.5,3.6,4.3,9.1c0,0-4,10.8,2.7,25l-31.4,0.6
		c0,0-16.5-13.8-27.2-30.1s7.1-37.8,7.1-37.8L173.6,80.7z"/>
	<path class="st7" d="M183.6,167.9c0,0,4,19.5,17.7,20.3s32,3.1,32,3.1l7.8-19.9l-16.7-4.2L183.6,167.9z"/>
	<path class="st4" d="M156.8,81.5c0,0,12-6.6,22.1,2.8s20.1,38.9-24.6,54.3c0,0-6.2-8-7-12S132.2,96.1,156.8,81.5z"/>
	<path class="st5" d="M175.4,101.2c-2.5-11.2-16.3-15.4-25-7.9c-15.5,13.4-40.2,38.7-32.4,58.3c11.2,28.1,72.2-7.1,72.2-7.1
		l-2.6-9.7c0,0-42.1,16.3-47,3.9C136.6,128.7,179.8,121.1,175.4,101.2z"/>
	
		<rect x="201.4" y="107.1" transform="matrix(0.9891 -0.1475 0.1475 0.9891 -24.4427 32.0352)" class="st9" width="4.9" height="147.6"/>
	<path class="st6" d="M175.4,101.2c-2.5-11.2-16.3-15.4-25-7.9c-15.5,13.4-40.2,38.7-32.4,58.3c11.2,28.1,72.2-7.1,72.2-7.1
		l-2.6-9.7c0,0-42.1,16.3-47,3.9C136.6,128.7,179.8,121.1,175.4,101.2z"/>
	<path class="st7" d="M188,136.2c0,0,4.4-4.2,6.9-2.7s4.2,0.7,7.2,1.2s4.2,12.2-12.1,8.6L188,136.2z"/>
	<polygon class="st10" points="273.6,59.3 284.8,100.3 298.7,90.8 290.1,55.6 294.9,35 273.6,35 	"/>
	<polygon class="st11" points="273.6,41.1 287.9,41.1 286.1,55.8 293.4,86.9 283.2,94.1 273.6,59 	"/>
	<path class="st7" d="M292.8,67c0,0,4-13.2-3.1-16.2S285,66.9,292.8,67z"/>
	<path class="st7" d="M243.8,209.8h9.2v11.9c0,1.9,1.2,3.5,3,4.1l4.2,1.4c1.8,0.6,3.1,2.3,3.1,4.3v2.2h-15.7c-1.3,0-2.4-1-2.5-2.4
		L243.8,209.8z"/>
	<polygon class="st12" points="120.7,246.7 158.8,215.7 195.9,253.3 224,223.7 245.8,232.9 279,209.8 298.7,233.8 316.3,268.3 
		105,268.3 	"/>
	<polygon class="st13" points="158.8,215.7 138.7,251.3 134.3,268.3 105,268.3 120.7,246.7 	"/>
	<polygon class="st13" points="195.9,253.3 208.2,263.3 224,223.7 	"/>
	<polygon class="st13" points="245.8,232.9 257.5,247 277,222.8 279,209.8 	"/>
	<polygon class="st7" points="188.5,237.7 198.8,239 195.9,253.3 188.5,245.8 	"/>
	
		<rect x="178.9" y="92.1" transform="matrix(0.9891 -0.1475 0.1475 0.9891 -12.5565 28.1737)" class="st9" width="9.7" height="13.3"/>
	
		<rect x="178.9" y="92.1" transform="matrix(0.9891 -0.1475 0.1475 0.9891 -12.5565 28.1737)" class="st11" width="9.7" height="13.3"/>
	
		<rect x="231.8" y="86.8" transform="matrix(0.9603 -0.279 0.279 0.9603 -16.7058 69.5551)" class="st9" width="8.4" height="13.3"/>
	
		<rect x="231.8" y="86.8" transform="matrix(0.9603 -0.279 0.279 0.9603 -16.7058 69.5551)" class="st11" width="8.4" height="13.3"/>
</g>
</svg>
