<svg id="Layer_1" data-name="Layer 1" xmlns="http://www.w3.org/2000/svg" viewBox="0 0 400 300"><path d="M117.46,51.94c-30,13-52.34,45.92-56.74,85.76C57,171.27,65.87,208.37,118,218.94c101.37,20.57,196.32,26.43,220.56-29.06S355.31,39.34,303.86,33.19C263,28.3,176.16,26.57,117.46,51.94Z" fill="#e6e6e6" opacity="0.3"/><ellipse cx="199.27" cy="269.26" rx="113.25" ry="8.5" fill="#e6e6e6" opacity="0.45"/><rect x="306.87" y="117.23" width="6.64" height="20.55" fill="#ffd200"/><path d="M220.41,70.78s28,3.21,30.68,35.21-4.32,53.11,24.39,46.3,38.92-7.83,38.92-7.83,10.9.86,7.83,9.11-15,0-15,0S262,183,234.74,160.85,220.41,70.78,220.41,70.78Z" fill="#f4a28c"/><path d="M243.51,260.85s1.85,3.73,5.4,3.62,4.87,3.23,1.81,4.49S239,267.09,239,267.09l-.45-6.48Z" fill="#68e1fd"/><path d="M163.33,261.23s-1.85,3.74-5.4,3.63-4.87,3.23-1.81,4.49,11.69-1.87,11.69-1.87l.44-6.48Z" fill="#68e1fd"/><path d="M127.5,257.62s-8.52-2.33-10.37-10.25c0,0,13.19-2.67,13.57,10.95Z" fill="#68e1fd" opacity="0.58"/><path d="M128.54,256.78s-5.95-9.41-.71-18.2c0,0,10,6.37,5.57,18.22Z" fill="#68e1fd" opacity="0.73"/><path d="M130.07,256.78s3.15-9.93,12.65-11.81c0,0,1.78,6.45-6.15,11.84Z" fill="#68e1fd"/><polygon points="123.9 256.56 125.62 268.37 136.5 268.41 138.1 256.62 123.9 256.56" fill="#24285b"/><path d="M194.25,49.41s3.12,6,3.78,10.6a3.41,3.41,0,0,1-2.91,3.85c-2.31.29-5.53,0-7.59-3l-4.12-4.7a6.09,6.09,0,0,1,0-7C185.9,45.15,192.54,45.65,194.25,49.41Z" fill="#f4a28c"/><polygon points="185.48 54.42 184.5 76.6 196.76 76.27 192.55 60.26 185.48 54.42" fill="#f4a28c"/><path d="M189.81,57.51s-1-2.39-2.78-1.46-.25,4.4,2.34,3.71Z" fill="#f4a28c"/><path d="M196,53.3,198.76,55a1.1,1.1,0,0,1,0,1.84l-2.21,1.43Z" fill="#f4a28c"/><path d="M193.55,63.93a8,8,0,0,1-4.21-1.9s.63,4,5.52,7.49Z" fill="#ce8172" opacity="0.31"/><path d="M185,60.4l-4.76-8.07s-4.39-1.32-2.48-4.82,4.76-1.92,5.85-6.45,5.7-4.12,7.3-1.76,7.31-.18,7.2,4-5.43,5.87-6.94,6.35C184.5,51.71,192.77,59,185,60.4Z" fill="#24285b"/><path d="M213.65,70.11a156.45,156.45,0,0,0-58.51,12.5c-12,5.11-11.76,18.12-5.93,29.77L175.59,177l59-3.49s10.75-35.68,8.59-76A29,29,0,0,0,213.65,70.11Z" fill="#68e1fd"/><path d="M288.21,81.66h45.42a0,0,0,0,1,0,0V99.07a22.71,22.71,0,0,1-22.71,22.71h0a22.71,22.71,0,0,1-22.71-22.71V81.66a0,0,0,0,1,0,0Z" transform="translate(4.02 -11.56) rotate(2.14)" fill="#ffd200"/><rect x="298.83" y="132.55" width="23.94" height="18.07" fill="#24285b"/><rect x="304.38" y="136.74" width="12.83" height="9.69" fill="#fff" opacity="0.13"/><path d="M285.87,88.12h20.36a0,0,0,0,1,0,0v22.09a0,0,0,0,1,0,0H285.87a11,11,0,0,1-11-11v0A11,11,0,0,1,285.87,88.12Z" fill="none" stroke="#ffd200" stroke-miterlimit="10" stroke-width="3"/><path d="M329.37,88.12h20.36a0,0,0,0,1,0,0v22.09a0,0,0,0,1,0,0H329.37a11,11,0,0,1-11-11v0A11,11,0,0,1,329.37,88.12Z" transform="translate(668.07 198.33) rotate(-180)" fill="none" stroke="#ffd200" stroke-miterlimit="10" stroke-width="3"/><path d="M174.44,94.73s8.87,12.68,2.8,27.42-6.73,26,7.26,22.91,30.84-11.13,30.84-11.13l2.82-11.78,4.11,1.39s14.46,15.69-4.91,25.37S190.56,161,192.1,176l-16.51,1-20.2-49.47Z" opacity="0.08"/><path d="M184.81,69.52s-7.77,1.75-6.49,11.71,31.4,13.35,32.17,38.72h3.32S215.2,97.31,196,88.12s-11.35-14.76-11.35-14.76Z" fill="#24285b"/><path d="M194.41,67.63s14.85-3.51,19.42,10.28,6.87,24.08,0,42h-3.32a59.74,59.74,0,0,0-1-40.89s-2.74-8-14-7.57Z" fill="#24285b"/><circle cx="212.02" cy="128.72" r="11.49" fill="#ffd200"/><path d="M169.39,87.31a19.35,19.35,0,0,0-24.6,1.17C132.94,99,115,120.17,120.38,149.06c5.34,28.73,84.32-4.09,84.32-4.09s15.24-3.57,13.7-8.68-16.33-1.53-16.33-1.53-44.58,7.15-51.65,2.55C144.3,133.34,189.89,103.18,169.39,87.31Z" fill="#f4a28c"/><path d="M293.75,89.07c-.9,6.61-1.5,20.75,8.41,26.37a1.42,1.42,0,0,0,1.95-1.92c-2.53-4.29-5.55-12.31-3.29-24.3a3.09,3.09,0,0,0-3-3.65h0A4.06,4.06,0,0,0,293.75,89.07Z" fill="#fff" opacity="0.43"/><path d="M175.59,177,163.38,261.3h4.79l23.11-54a40.36,40.36,0,0,1,18.38-20.47l24.94-13.34Z" fill="#f4a28c"/><polygon points="234.6 173.48 243.48 261.3 238.58 261.3 208.83 182.57 234.6 173.48" fill="#f4a28c"/><polygon points="175.59 176.97 168.96 210.23 194.41 212.71 206.29 194.84 213.83 212.71 243.48 210.23 234.6 173.48 175.59 176.97" fill="#24285b"/><polygon points="165.03 249.9 172.65 250.82 168.17 261.29 163.38 261.3 165.03 249.9" fill="#68e1fd"/><polygon points="165.03 249.9 172.65 250.82 168.17 261.29 163.38 261.3 165.03 249.9" fill="#fff" opacity="0.46"/><polygon points="234.89 251.53 242.49 251.53 243.48 261.3 238.58 261.3 234.89 251.53" fill="#68e1fd"/><polygon points="234.89 251.53 242.49 251.53 243.48 261.3 238.58 261.3 234.89 251.53" fill="#fff" opacity="0.46"/></svg>